<svg width="128" height="128" viewBox="0 0 128 128" fill="none" xmlns="http://www.w3.org/2000/svg">

  <!-- Background -->
  <rect width="128" height="128" rx="24" fill="#1E1E1E"></rect>

  <!-- Left brace -->
  <path d="M38 28
           C30 28 28 32 28 40
           V52
           C28 56 24 58 20 58
           C24 58 28 60 28 64
           V88
           C28 96 30 100 38 100" stroke="#4FC3F7" stroke-width="6" fill="none" stroke-linecap="round"></path>

  <!-- Right brace -->
  <path d="M90 28
           C98 28 100 32 100 40
           V52
           C100 56 104 58 108 58
           C104 58 100 60 100 64
           V88
           C100 96 98 100 90 100" stroke="#4FC3F7" stroke-width="6" fill="none" stroke-linecap="round"></path>

  <!-- Import lines: smaller → larger -->
  <!-- Small -->
  <line x1="46" y1="46" x2="66" y2="46" stroke="#C3E88D" stroke-width="5" stroke-linecap="round"></line>

  <!-- Medium -->
  <line x1="46" y1="64" x2="76" y2="64" stroke="#C3E88D" stroke-width="5" stroke-linecap="round"></line>

  <!-- Large -->
  <line x1="46" y1="82" x2="86" y2="82" stroke="#C3E88D" stroke-width="5" stroke-linecap="round"></line>

</svg>
